<svg id="Layer_1" enable-background="new 0 0 512.079 512.079" height="512" viewBox="0 0 512.079 512.079" width="512" xmlns="http://www.w3.org/2000/svg"><g><path d="m482.079 131.299v15.684h-31.371v-15.684h-30v15.684h-42.053v87.279h42.053v15.685h30v-15.685h31.371v15.685h30v-118.648z"/><path d="m327.969 121.413v-24.083h-30v24.083h-206.599v-55.761h-30v81.331h-61.37v128.308h30v-41.029h31.37v25.571h94.098v35.171l-70.357 121.423h-16.924v30h67.502v-30h-15.906l59.324-102.384h17.273v102.384h-17.729v30h67.502v-30h-19.773v-102.385h17.269l59.325 102.384h-15.907v30h67.503v-30h-16.924l-70.352-121.417v-35.177h81.361v-138.42h-20.686zm-27.607 84.21h-30.685v-30h30.685z"/></g></svg>